Simulation
nRows=46
nColumns=15
endheader
time  TH_x TH_y TH_z SC_y  SC_z  SC_x  AC_y  AC_z  AC_x  GH_y  GH_z  GH_yy  EL_x  PS_y
5.382082397003745  0.000000  0.000000  0.000000  -43.76935270324812  16.75960918460816  23.301576055436566  54.616057903253  17.129808563923334  18.38575101050701  3.851606569741486  54.53541883550812  0.7439739470599553  13.471805083309917  120.000000
5.422247191011236  0.000000  0.000000  0.000000  -43.885084044024204  16.67545310866458  23.18916851851326  54.66439987026529  17.08385031596564  18.057047544158  4.3334025963368035  54.691085737509226  0.11764348159083772  13.492868710311766  120.000000
5.4624119850187265  0.000000  0.000000  0.000000  -43.87943340056497  16.593489007641132  22.906607284608587  54.71675877738503  17.00941984590635  17.627721541057337  4.90328254044759  54.64181661330181  -0.4539785227187195  13.43340170857981  120.000000
5.502576779026217  0.000000  0.000000  0.000000  -43.75203635155458  16.511183202895676  22.443940848474426  54.78363902106337  16.898917831359206  17.0968467218241  5.559969613163209  54.38068729915006  -0.9769679976933491  13.309397727285232  120.000000
5.542741573033708  0.000000  0.000000  0.000000  -43.50406153653038  16.42218210910009  21.792945281790907  54.87282897938724  16.744076980385596  16.467088041872604  6.300657259193261  53.90358766252115  -1.458881920866588  13.143100460747686  120.000000
5.582906367041199  0.000000  0.000000  0.000000  -43.13896644444451  16.316180485540457  20.947991131468257  54.98805128905568  16.536183012320564  15.745285873124388  7.121764449949445  53.210849347406  -1.90617625905581  12.958971410506884  120.000000
5.623071161048689  0.000000  0.000000  0.000000  -42.6633186846787  16.17925668896827  19.907139795199125  55.12792474087716  16.26676661916622  14.942602098640458  8.019094280254278  52.30862613436492  -2.3214695274927193  12.779488553587228  120.000000
5.66323595505618  0.000000  0.000000  0.000000  -42.0872747153763  15.99472389630937  18.67328203650336  55.2856005673365  15.92866769746284  14.074261587450202  8.987470230606121  51.20961890491543  -2.701362906382127  12.621688790486548  120.000000
5.70340074906367  0.000000  0.000000  0.000000  -41.42434305423131  15.744400074794655  17.255073919864216  55.44920598407481  15.517346142510135  13.158851241367978  10.020009297742925  49.932663769301215  -3.035326661854259  12.495315969413083  120.000000
5.743565543071161  0.000000  0.000000  0.000000  -40.69042153152225  15.41021645475791  15.667335217026162  55.60315391337496  15.032162048593776  12.21708383473621  11.107198357368748  48.50120881637802  -3.305943569215347  12.4028174556458  120.000000
5.7837303370786515  0.000000  0.000000  0.000000  -39.902429200517  14.97597350552952  13.930855863967418  55.73001093775113  14.477343789540019  11.270190449481348  12.236027189316141  46.941029352531444  -3.4902361295417976  12.340674625959902  120.000000
5.823895131086142  0.000000  0.000000  0.000000  -39.07674136615331  14.429056071287048  12.071491060313567  55.81260673461907  13.862471388125845  10.337938188287326  13.389259575478004  45.27781526521636  -3.561654889041077  12.301395516466606  120.000000
5.864059925093633  0.000000  0.000000  0.000000  -38.227618651650786  13.761738249804928  10.118748651226387  55.836091748172954  13.202141740956863  9.437000363337637  14.545428229851737  43.53495315249384  -3.4925444315889957  12.275593976517575  120.000000
5.904224719101124  0.000000  0.000000  0.000000  -37.3655413080972  12.971626291658662  8.104088978780766  55.78960580124474  12.515024382693326  8.579993041208295  15.67973419935718  41.732051475245036  -3.256859889483747  12.254064570186566  120.000000
5.944389513108614  0.000000  0.000000  0.000000  -36.49626830203589  12.061665095534288  6.059446991488219  55.667243375598304  11.822711257274443  7.775215576787456  16.764960705191637  39.88436664066166  -2.832229899425793  12.229246743421609  120.000000
5.984554307116105  0.000000  0.000000  0.000000  -35.62080803346404  11.040006312522813  4.016192026876936  55.46816912640133  11.148587276068236  7.02663589738411  17.772341910934454  38.00336028918606  -2.201284474214128  12.19595139083448  120.000000
6.024719101123596  0.000000  0.000000  0.000000  -34.735789478179335  9.919525996821827  2.0045003152521153  55.19629671707566  10.516741876630489  6.334300111765311  18.67286163487269  36.09802332369695  -1.3525610905002516  12.152022660735785  120.000000
6.064883895131086  0.000000  0.000000  0.000000  -33.83434953471065  8.71705859872044  0.05293993945469842  54.85992136241877  9.9506395712048  5.695412029894822  19.438977035294016  34.17665788380987  -0.28100011501271505  12.098777206656974  120.000000
6.1050486891385765  0.000000  0.000000  0.000000  -32.90764799555552  7.452530786260023  -1.812022432777128  54.47117519251266  9.47180104462334  5.105402762584072  20.046423561129654  32.24896604805669  1.0118982753162835  12.041268998532402  120.000000
6.145213483146067  0.000000  0.000000  0.000000  -31.947254627849652  6.1481794739177955  -3.566618750914524  54.0452495251437  9.098434107828785  4.559125449819371  20.475749461378477  30.328062091571358  2.518563848889203  11.988131681647179  120.000000
6.185378277153558  0.000000  0.000000  0.000000  -30.947632512980206  4.827738740784563  -5.190901526893985  53.59948919327847  8.84419418319928  4.051611769985708  20.71354432427446  28.431970453598048  4.226128713686162  11.950856276523067  120.000000
6.225543071161049  0.000000  0.000000  0.000000  -29.90821728875128  3.515269291198389  -6.670241815077416  53.152271025947044  8.717179379541928  3.5785189585350823  20.753123272296317  26.58357822391173  6.117521668768266  11.942633420774147  120.000000
6.265707865168539  0.000000  0.000000  0.000000  -28.834208034319968  2.2335546894280727  -7.996547496793833  52.72138739311743  8.719134021758219  3.136556885296196  20.594894709433923  24.80862118520643  8.172407831103701  11.976989762491439  120.000000
6.30587265917603  0.000000  0.000000  0.000000  -27.735091005055665  1.0021196537816113  -9.169126714792045  52.3234572451096  8.845776856603642  2.7231755880698594  20.247476031823645  23.132245610988384  10.366712097615947  12.06655578890334  120.000000
6.346037453183521  0.000000  0.000000  0.000000  -26.622110511421013  -0.164822879692797  -10.192775207188713  51.97334926367498  9.08580968504817  2.3359186808892116  19.729959364321402  21.57439642497835  12.670513721552027  12.222126595189154  120.000000
6.386202247191012  0.000000  0.000000  0.000000  -25.506256675204423  -1.2601930465631128  -11.076003757365127  51.68280285235321  9.421889416430865  1.9730859767745144  19.07268810974573  20.1455852722216  15.04617469050071  12.4517938943801  120.000000
6.426367041198501  0.000000  0.000000  0.000000  -24.397925784684787  -2.282993727198308  -11.829552795186812  51.46001436462394  9.83309937127821  1.6333343889432692  18.31641134223621  18.846099722668768  17.447441820001902  12.759672466773509  120.000000
6.466531835205992  0.000000  0.000000  0.000000  -23.30822523761199  -3.2349409586917885  -12.464381990933175  51.30870991118793  10.29666658168004  1.3149950925407299  17.508624191297688  17.667609665940628  19.820707296145184  13.1447890273093  120.000000
6.506696629213483  0.000000  0.000000  0.000000  -22.251058001971874  -4.118518792977686  -12.99465978771979  51.227411428928946  10.79255484813034  1.0183636468830928  16.70207205512585  16.596692391747226  22.104167112924078  13.59957416144504  120.000000
6.546861423220974  0.000000  0.000000  0.000000  -21.244168279258588  -4.9351208548799645  -13.435941000951589  51.209920118355384  11.302460652352263  0.7456738680328893  15.958768200450677  15.618236434736769  24.22228298917772  14.109149873647345  120.000000
6.587026217228464  0.000000  0.000000  0.000000  -20.3084273059923  -5.684235773841495  -13.801716003158079  51.24632674135092  11.80866604203379  0.4993912898928738  15.353435481318328  14.717438508430496  26.082142639735938  14.652123242541947  120.000000
6.627191011235955  0.000000  0.000000  0.000000  -19.465981363448535  -6.363444469571134  -14.104572703945735  51.32510519658241  12.295678230146768  0.2815917466054974  14.98064306210509  13.881649098277432  27.566470850370596  15.201515150324612  120.000000
6.667355805243446  0.000000  0.000000  0.000000  -18.73919777938494  -6.969172001656683  -14.355850329189327  51.433954808148435  12.748699947426244  0.0933050308108757  14.955285946963523  13.099278008439732  28.536904808209602  15.727336386606286  120.000000
6.707520599250937  0.000000  0.000000  0.000000  -18.148088528621038  -7.498953218391465  -14.568757390826226  51.55740312565218  13.154053671404128  -0.06301758467873422  15.395606973988498  12.35785905352187  28.854972272514374  16.201477780089796  120.000000
6.747685393258427  0.000000  0.000000  0.000000  -17.706990402604994  -7.9515636364060995  -14.758838249229997  51.679441915813406  13.498599327075214  -0.18366491846681893  16.422894068492546  11.645371072823202  28.384993444991974  16.601885622801795  120.000000
6.787850187265918  0.000000  0.000000  0.000000  -17.420559258661733  -8.328361961292735  -14.940430534179441  51.79154475844005  13.77123952862509  -0.26778236779565395  18.171472609776572  10.954897803055442  26.98775723502672  16.91556244285282  120.000000
6.828014981273408  0.000000  0.000000  0.000000  -17.279611068385652  -8.63399989332123  -15.122139532184027  51.89075972650867  13.966967801563069  -0.3157844952226053  20.764280293951007  10.287556558982367  24.548970441366844  17.140580690910696  120.000000
6.868179775280899  0.000000  0.000000  0.000000  -17.26180283618489  -8.87339630824918  -15.303991973823848  51.977939986608995  14.0893230722524  -0.32881366558386255  24.27054056423581  9.653802614457783  21.025039390414065  17.286265717198006  120.000000
6.908344569288389  0.000000  0.000000  0.000000  -17.33647088143503  -9.050176445373705  -15.478240389125478  52.058324022025246  14.149659988768551  -0.31087237469300466  28.681300965642865  9.071372277567345  16.46350551551  17.370355999667346  120.000000
6.94850936329588  0.000000  0.000000  0.000000  -17.474386827680526  -9.166967844509529  -15.63278411113585  52.13749796424509  14.162637554222423  -0.2673336124506974  33.920867980211526  8.560098725077053  10.979226425057247  17.412837507123214  120.000000
6.988674157303371  0.000000  0.000000  0.000000  -17.653178921427735  -9.22603535220986  -15.755360452242709  52.21986786663536  14.142714884792728  -0.20363690218047042  39.85653472158585  8.137197519439802  4.737952923604922  17.431472879339022  120.000000
7.028838951310862  0.000000  0.000000  0.000000  -17.85594702610471  -9.22974293662322  -15.835194265184514  52.308895234164645  14.102629898861293  -0.12510676082349273  46.29328449696865  7.812735876089787  -2.036819984181394  17.440252546647425  120.000000
7.069003745318352  0.000000  0.000000  0.000000  -18.070501885949774  -9.18060180726887  -15.863924750115276  52.40779833964022  14.05329353803714  -0.03710257063803684  52.98968042748826  7.588039270993881  -9.079255140464102  17.448539688781775  120.000000
7.109168539325843  0.000000  0.000000  0.000000  -18.287812449075677  -9.080850314546838  -15.835257261616153  52.519222932402876  14.003966018441844  0.05539475272486252  59.689743304775625  7.455239929978334  -16.112468229942642  17.461341774642804  120.000000
7.149333333333334  0.000000  0.000000  0.000000  -18.500966020123293  -8.932227200362727  -15.744658934559869  52.644961267533645  13.962570874162404  0.14799011243701235  66.1627673615164  7.398218216688667  -22.88776946771645  17.48039189785983  120.000000
7.189498127340824  0.000000  0.000000  0.000000  -18.704734061547633  -8.73615098524587  -15.588951699958884  52.785709116898865  13.935706595465529  0.23694607786597208  72.23745584297886  7.395125683836364  -29.218508806029423  17.50516586722409  120.000000
